<svg version="1.1" id="Layer_1" xmlns="http://www.w3.org/2000/svg" xmlns:xlink="http://www.w3.org/1999/xlink" x="0px" y="0px"
	  viewBox="0 0 768 512" enable-background="new 0 0 768 512" xml:space="preserve">
<path fill="currentColor"  
	d="
M499.531891,331.634949 
	C529.457825,331.638641 558.952637,331.635406 588.447449,331.655975 
	C600.810974,331.664581 607.323975,338.097198 607.342285,350.322998 
	C607.366699,366.653442 607.362793,382.983948 607.343323,399.314392 
	C607.329041,411.253418 600.496643,418.123413 588.388916,418.171753 
	C569.392578,418.247559 550.395691,418.193146 531.399048,418.193787 
	C509.569550,418.194489 487.739563,418.268341 465.911041,418.122681 
	C462.333496,418.098816 460.256744,419.261597 458.258118,422.279205 
	C440.045868,449.776825 414.052704,463.999268 381.351746,464.148895 
	C288.036774,464.575928 194.718597,464.316345 101.401695,464.291504 
	C89.583878,464.288361 82.718704,457.444153 82.708511,445.658295 
	C82.667709,398.499969 82.666237,351.341522 82.710442,304.183228 
	C82.721550,292.335999 89.531853,285.669556 101.360649,285.655365 
	C112.192070,285.642395 123.029282,285.444489 133.852203,285.747467 
	C138.435349,285.875763 139.861862,284.493622 139.835022,279.853333 
	C139.662567,250.026321 139.777603,220.197739 139.766586,190.369659 
	C139.764282,184.110519 141.133743,178.434433 146.305969,174.344772 
	C149.389587,171.906555 152.875687,170.580688 156.916367,170.623047 
	C165.747147,170.715607 174.579620,170.653427 183.411392,170.646759 
	C190.634872,170.641296 190.648621,170.636353 190.650909,163.620132 
	C190.660172,135.125153 190.651779,106.630157 190.667770,78.135185 
	C190.674438,66.245544 197.285522,59.643894 209.195404,59.643627 
	C301.845764,59.641541 394.496124,59.620293 487.146454,59.669361 
	C520.977295,59.687279 547.594727,73.526352 566.364014,101.828941 
	C568.432678,104.948273 570.769897,105.710060 574.212708,105.703072 
	C614.872070,105.620567 655.531616,105.647537 696.191162,105.658989 
	C708.447449,105.662437 715.292847,112.511765 715.319580,124.857368 
	C715.354553,141.021103 715.352539,157.185059 715.309692,173.348770 
	C715.278198,185.251556 708.255005,192.280365 696.342651,192.289062 
	C655.683167,192.318771 615.023499,192.351410 574.364319,192.234879 
	C570.464661,192.223709 567.958618,193.209793 565.913574,196.758041 
	C561.759521,203.965683 555.964355,209.937714 549.709106,215.625793 
	C551.851257,217.310715 553.921509,216.652466 555.817749,216.655533 
	C585.479126,216.703491 615.140564,216.672882 644.802002,216.693604 
	C658.045654,216.702850 664.335327,223.039597 664.338013,236.277573 
	C664.341248,252.608032 664.345764,268.938507 664.333923,285.268951 
	C664.325867,296.424286 657.557556,303.279022 646.287048,303.292755 
	C605.627625,303.342255 564.967773,303.379730 524.308899,303.229492 
	C519.992554,303.213531 517.302917,304.311279 515.054688,308.201996 
	C510.009674,316.932617 502.545044,323.673309 495.086884,330.340973 
	C496.115692,332.403137 497.812286,331.320007 499.531891,331.634949 
M441.357330,406.851807 
	C444.484253,398.077057 450.512085,394.464417 459.896484,395.526917 
	C465.490112,396.160187 471.233978,395.347382 476.873962,395.726196 
	C481.667389,396.048187 482.978668,394.129791 482.726562,389.660522 
	C482.417358,384.179260 482.634674,378.666748 482.669434,373.167999 
	C482.719666,365.216156 486.714844,360.577026 493.568756,360.449554 
	C500.683289,360.317261 505.089111,364.993073 505.254089,373.073181 
	C505.376526,379.069641 505.429688,385.074371 505.250610,391.067535 
	C505.146393,394.555298 506.486481,395.712067 509.930298,395.697327 
	C533.258667,395.597534 556.587952,395.584717 579.915955,395.714020 
	C583.638489,395.734650 584.879395,394.464447 584.812866,390.791992 
	C584.631775,380.797180 584.754272,370.797028 584.736023,360.799042 
	C584.723999,354.219269 584.708069,354.196106 578.122681,354.195465 
	C539.296997,354.191650 500.466949,353.884430 461.648529,354.416901 
	C451.479797,354.556396 445.544067,351.291199 440.672333,342.281158 
	C431.524017,325.361755 416.761261,315.021759 398.050537,310.216156 
	C386.208954,307.174744 374.196777,308.726959 362.263947,308.134338 
	C357.796112,307.912415 356.149048,309.210968 356.234619,313.975128 
	C356.518890,329.800201 356.379425,345.633759 356.317780,361.463776 
	C356.289886,368.622803 352.778992,372.575897 345.701538,373.583069 
	C343.732544,373.863281 341.719330,373.929413 339.726379,373.930267 
	C291.402557,373.951111 243.078720,373.957672 194.754913,373.932678 
	C191.930588,373.931213 189.086227,373.804504 186.286255,373.455078 
	C179.798203,372.645447 175.882492,368.656525 175.770157,362.267334 
	C175.579773,351.439575 175.557663,340.603149 175.766464,329.776154 
	C175.899811,322.861633 180.647217,318.461670 187.188583,318.549957 
	C193.718658,318.638153 198.114670,323.122650 198.289841,330.107056 
	C198.423477,335.436188 198.502533,340.778076 198.281128,346.100800 
	C198.126694,349.813477 199.561462,351.077362 203.209183,351.070984 
	C245.034149,350.997894 286.859375,350.989960 328.684265,351.085205 
	C332.672028,351.094299 333.863251,349.560791 333.793518,345.748413 
	C333.607605,335.587128 333.734650,325.420227 333.725494,315.255554 
	C333.719177,308.229889 333.710449,308.202423 326.544037,308.201538 
	C254.891449,308.192444 183.238754,308.247009 111.586563,308.078644 
	C106.405388,308.066498 105.196159,309.659760 105.219963,314.618805 
	C105.411957,354.610016 105.330406,394.602570 105.334908,434.594696 
	C105.335701,441.642822 105.341133,441.649200 112.454063,441.649445 
	C201.603226,441.652252 290.752411,441.694427 379.901520,441.629150 
	C406.533936,441.609619 426.921387,430.133514 441.357330,406.851807 
M201.500061,193.302567 
	C190.503799,193.303787 179.501907,193.511002 168.513931,193.209808 
	C163.796021,193.080490 162.197922,194.393356 162.240952,199.325241 
	C162.469208,225.483200 162.344223,251.644226 162.345627,277.804199 
	C162.346039,285.637054 162.351959,285.649017 170.170197,285.649628 
	C240.152298,285.655121 310.134430,285.680054 380.116455,285.628357 
	C388.999023,285.621796 397.740631,286.518799 406.255188,288.980530 
	C425.200653,294.458130 441.084473,304.657410 453.213928,320.336487 
	C455.517426,323.314117 457.765198,323.941528 461.329132,322.655914 
	C478.181580,316.577057 491.429962,306.206421 499.487335,290.084869 
	C502.947540,283.161652 507.774048,280.254059 515.316223,280.616058 
	C521.965820,280.935211 528.645325,280.574005 535.306824,280.726471 
	C538.498901,280.799500 539.819214,279.700409 539.734863,276.403168 
	C539.572998,270.075806 539.580505,263.738190 539.735535,257.410187 
	C539.914978,250.085739 544.418945,245.478653 551.068848,245.509430 
	C557.807739,245.540619 562.178345,250.112976 562.302124,257.456909 
	C562.403137,263.453705 562.492676,269.459381 562.275330,275.449768 
	C562.139526,279.191223 563.124268,280.801208 567.277588,280.770233 
	C590.437012,280.597595 613.598938,280.614563 636.758728,280.760864 
	C640.685181,280.785645 642.038635,279.512543 641.960938,275.594849 
	C641.762878,265.601349 641.632629,255.591476 642.004761,245.607880 
	C642.198486,240.410217 640.326233,239.197540 635.392151,239.219589 
	C595.069946,239.399902 554.746338,239.261017 514.423706,239.381470 
	C507.685425,239.401596 503.292419,236.923859 500.105652,230.782364 
	C490.172882,211.640030 474.455139,199.800964 453.401489,194.866745 
	C442.009735,192.196930 430.502716,193.930191 419.070587,193.247940 
	C414.736938,192.989319 413.214081,194.479996 413.273407,198.907379 
	C413.483215,214.567184 413.363342,230.231583 413.343719,245.894226 
	C413.332733,254.658951 409.386444,258.909851 400.654572,258.922974 
	C349.167908,259.000397 297.681030,259.002319 246.194321,258.947632 
	C237.361877,258.938263 232.985733,254.522858 232.856857,245.676041 
	C232.716110,236.013947 232.791687,226.347916 232.861313,216.684235 
	C232.873108,215.044785 233.129227,213.346024 233.616608,211.781921 
	C235.456116,205.878586 240.390167,202.826355 246.294083,203.777649 
	C251.368240,204.595245 255.192642,209.157288 255.315353,214.796616 
	C255.427689,219.959579 255.593933,225.142227 255.273544,230.287384 
	C255.001968,234.648193 256.524628,236.104492 260.920044,236.091141 
	C302.409058,235.964996 343.898682,235.970001 385.387756,236.076843 
	C389.476227,236.087372 391.017822,234.795105 390.932190,230.629349 
	C390.723419,220.469620 390.859680,210.302673 390.866028,200.138641 
	C390.870270,193.332016 390.877228,193.308426 383.953644,193.307648 
	C323.469116,193.300873 262.984619,193.303177 201.500061,193.302567 
M464.301483,88.693123 
	C464.295105,103.192436 464.289978,117.691757 464.281891,132.191071 
	C464.275360,143.932480 460.219879,147.976044 448.281067,147.978592 
	C399.114777,147.989090 349.948456,147.976257 300.782166,147.950272 
	C298.621887,147.949127 296.440826,147.886124 294.305328,147.591660 
	C287.110382,146.599564 283.710052,142.760147 283.670044,135.545654 
	C283.613617,125.379379 283.614166,115.212303 283.672760,105.046051 
	C283.716858,97.397713 287.759491,92.707466 294.291260,92.530556 
	C301.413666,92.337631 306.014313,97.014999 306.235565,104.894485 
	C306.375916,109.890610 306.468231,114.903961 306.210541,119.890388 
	C306.003143,123.903984 307.663574,125.055969 311.476868,125.048340 
	C353.143036,124.964958 394.809509,124.971581 436.475708,125.057304 
	C440.279816,125.065132 441.811554,123.892921 441.726868,119.881371 
	C441.505249,109.386139 441.432068,98.876305 441.753815,88.386230 
	C441.899963,83.620857 440.481812,82.102142 435.610199,82.111160 
	C363.444305,82.244675 291.278015,82.235741 219.112076,82.106514 
	C214.506317,82.098267 213.146851,83.475815 213.183823,88.069160 
	C213.386444,113.234047 213.286270,138.401367 213.287506,163.567856 
	C213.287842,170.625793 213.283829,170.638992 220.377380,170.639557 
	C292.710205,170.645187 365.043091,170.616867 437.375885,170.662354 
	C468.025055,170.681625 492.931671,182.629166 511.537109,207.119751 
	C513.807739,210.108612 515.599365,210.542984 518.934143,208.920593 
	C533.077332,202.039917 543.943420,191.863495 550.790039,177.683640 
	C553.621582,171.819534 557.849060,169.337311 564.283508,169.581223 
	C571.606262,169.858826 578.949219,169.556519 586.280151,169.688339 
	C589.521240,169.746613 590.739746,168.457474 590.681702,165.249771 
	C590.558167,158.418976 590.541748,151.580978 590.712280,144.751709 
	C590.859985,138.839462 595.030884,134.854706 600.896362,134.635635 
	C608.261414,134.360535 612.761841,138.639252 613.104004,146.681763 
	C613.358948,152.671509 613.316528,158.682693 613.159485,164.677872 
	C613.066956,168.209885 614.134033,169.735977 617.976746,169.714447 
	C641.309204,169.583725 664.643127,169.587143 687.975464,169.733078 
	C691.850952,169.757324 692.784180,168.219543 692.727478,164.687271 
	C692.567017,154.689987 692.688904,144.688354 692.675720,134.688461 
	C692.667175,128.217255 692.648315,128.198914 685.965454,128.198181 
	C646.965759,128.193863 607.963928,127.982758 568.967773,128.354523 
	C559.362061,128.446091 553.506409,125.412544 548.742004,116.645630 
	C539.499329,99.638336 524.683411,89.022537 505.770660,84.207939 
	C493.930359,81.193764 481.906433,82.707184 469.964874,82.145691 
	C465.652435,81.942932 463.613312,83.282738 464.301483,88.693123 
z"/>
</svg>